<?xml version="1.0" encoding="UTF-8"?>
<svg height="21.75pt" viewBox="-23 1 511 511.99999" width="37.5pt" xmlns="http://www.w3.org/2000/svg">
<path d="m136.773438 116.171875c-7.050782-14.460937-10.539063-27.839844-10.539063-40.328125 0-19.097656 5.046875-37.035156 13.867187-52.5625h-43.5625v92.890625zm0 0"/><path d="m212.164062 207.191406-3.082031-2.730468c-2.007812-1.78125-20.140625-18.007813-38.761719-39.628907-5.234374-6.078125-9.984374-11.988281-14.273437-17.742187h-59.507813v60.101562zm0 0"/><path d="m.5 103.859375v316.289063h65.121094v-395.363282c-37.0625 7.230469-65.121094 39.933594-65.121094 79.074219zm0 0"/><path d="m96.539062 238.109375h121v60.101563h-121zm0 0"/><path d="m96.539062 329.128906h121v60.101563h-121zm0 0"/><path d="m96.539062 420.148438h121v91.851562h-121zm0 0"/><path d="m272.25 144.652344c24.28125-28.195313 36.59375-51.347656 36.59375-68.808594 0-41.820312-34.023438-75.84375-75.84375-75.84375s-75.84375 34.023438-75.84375 75.84375c0 17.460938 12.308594 40.613281 36.59375 68.8125 17.519531 20.34375 34.953125 35.882812 35.832031 36.660156l3.417969 3.023438 3.414062-3.023438c.730469-.648437 18.15625-16.128906 35.835938-36.664062zm0 0"/><path d="m248.457031 420.148438h121.003907v91.851562h-121.003907zm0 0"/><path d="m309.953125 147.089844c-4.292969 5.753906-9.039063 11.660156-14.273437 17.742187-1.953126 2.261719-3.898438 4.46875-5.828126 6.613281l-5.183593 31.289063-21.105469-4.398437c-3.902344 3.6875-6.375 5.886718-6.652344 6.132812l-3.078125 2.722656h115.628907v-60.101562zm0 0"/><path d="m325.898438 23.28125c8.820312 15.527344 13.863281 33.464844 13.863281 52.5625 0 12.488281-3.484375 25.867188-10.539063 40.328125h40.238282v-92.890625zm0 0"/><path d="m400.378906 24.785156v395.363282h65.121094v-316.289063c-.003906-39.140625-28.0625-71.839844-65.121094-79.074219zm0 0"/><path d="m248.457031 238.109375h121.003907v60.101563h-121.003907zm0 0"/><path d="m248.457031 329.128906h121.003907v60.101563h-121.003907zm0 0"/></svg>